<svg width="48" height="49" viewBox="0 0 48 49" fill="none" xmlns="http://www.w3.org/2000/svg">
<g clip-path="url(#clip0_2847_19610)">
<path d="M24 48.1406C37.2548 48.1406 48 37.3954 48 24.1406C48 10.8858 37.2548 0.140625 24 0.140625C10.7452 0.140625 0 10.8858 0 24.1406C0 37.3954 10.7452 48.1406 24 48.1406Z" fill="#F1F8FF"/>
<path d="M21 19.1406H27M27 29.1406V26.1406M24 29.1406H24.01M21 29.1406H21.01M21 26.1406H21.01M24 26.1406H24.01M27 23.1406H27.01M24 23.1406H24.01M21 23.1406H21.01M19 33.1406H29C29.5304 33.1406 30.0391 32.9299 30.4142 32.5548C30.7893 32.1797 31 31.671 31 31.1406V17.1406C31 16.6102 30.7893 16.1015 30.4142 15.7264C30.0391 15.3513 29.5304 15.1406 29 15.1406H19C18.4696 15.1406 17.9609 15.3513 17.5858 15.7264C17.2107 16.1015 17 16.6102 17 17.1406V31.1406C17 31.671 17.2107 32.1797 17.5858 32.5548C17.9609 32.9299 18.4696 33.1406 19 33.1406Z" stroke="#1AA3FF" stroke-width="2" stroke-linecap="round" stroke-linejoin="round"/>
</g>
<defs>
<clipPath id="clip0_2847_19610">
<rect width="48" height="48" fill="white" transform="translate(0 0.140625)"/>
</clipPath>
</defs>
</svg>
