<svg width="48" height="49" viewBox="0 0 48 49" fill="none" xmlns="http://www.w3.org/2000/svg">
<g clip-path="url(#clip0_2847_19589)">
<path d="M24 48.1406C37.2548 48.1406 48 37.3954 48 24.1406C48 10.8858 37.2548 0.140625 24 0.140625C10.7452 0.140625 0 10.8858 0 24.1406C0 37.3954 10.7452 48.1406 24 48.1406Z" fill="#FFF7EA"/>
<path d="M22.4453 25.5122V23.1934C22.4453 22.0888 23.3407 21.1934 24.4453 21.1934H30.0053C31.1098 21.1934 32.0053 22.0888 32.0053 23.1934V30.1408C32.0053 31.2453 31.1098 32.1408 30.0053 32.1408H24.4453C23.3407 32.1408 22.4453 31.2453 22.4453 30.1408V28.4916" stroke="#FFA876" stroke-width="2"/>
<path d="M25.5561 22.7692V25.0879C25.5561 26.1925 24.6607 27.0879 23.5561 27.0879H17.9961C16.8916 27.0879 15.9961 26.1925 15.9961 25.0879V18.1406C15.9961 17.036 16.8916 16.1406 17.9961 16.1406H23.5561C24.6607 16.1406 25.5561 17.036 25.5561 18.1406V19.7897" stroke="#FFA876" stroke-width="2"/>
</g>
<defs>
<clipPath id="clip0_2847_19589">
<rect width="48" height="48" fill="white" transform="translate(0 0.140625)"/>
</clipPath>
</defs>
</svg>
