<svg width="48" height="49" viewBox="0 0 48 49" fill="none" xmlns="http://www.w3.org/2000/svg">
<mask id="mask0_2847_19599" style="mask-type:luminance" maskUnits="userSpaceOnUse" x="0" y="0" width="48" height="49">
<path d="M48 0.140625H0V48.1406H48V0.140625Z" fill="white"/>
</mask>
<g mask="url(#mask0_2847_19599)">
<path d="M24 48.1406C37.2548 48.1406 48 37.3954 48 24.1406C48 10.8858 37.2548 0.140625 24 0.140625C10.7452 0.140625 0 10.8858 0 24.1406C0 37.3954 10.7452 48.1406 24 48.1406Z" fill="#FEF5FE"/>
<path d="M26 22.1406L24 23.1406M24 23.1406L22 22.1406M24 23.1406V25.6406M32 19.1406L30 20.1406M32 19.1406L30 18.1406M32 19.1406V21.6406M26 16.1406L24 15.1406L22 16.1406M16 19.1406L18 18.1406M16 19.1406L18 20.1406M16 19.1406V21.6406M24 33.1406L22 32.1406M24 33.1406L26 32.1406M24 33.1406V30.6406M18 30.1406L16 29.1406V26.6406M30 30.1406L32 29.1406V26.6406" stroke="#EF8DF8" stroke-width="2" stroke-linecap="round" stroke-linejoin="round"/>
</g>
</svg>
