<svg width="83" height="37" viewBox="0 0 83 37" fill="none" xmlns="http://www.w3.org/2000/svg">
<path d="M36.1103 19.1262C36.1103 22.7694 33.2182 25.454 29.6691 25.454C26.1199 25.454 23.2279 22.7694 23.2279 19.1262C23.2279 15.4573 26.1199 12.7983 29.6691 12.7983C33.2182 12.7983 36.1103 15.4573 36.1103 19.1262ZM33.2907 19.1262C33.2907 16.8495 31.6145 15.2918 29.6691 15.2918C27.7237 15.2918 26.0476 16.8495 26.0476 19.1262C26.0476 21.38 27.7237 22.9606 29.6691 22.9606C31.6145 22.9606 33.2907 21.3771 33.2907 19.1262ZM50.006 19.1262C50.006 22.7694 47.114 25.454 43.5648 25.454C40.0157 25.454 37.1237 22.7694 37.1237 19.1262C37.1237 15.4601 40.0157 12.7983 43.5648 12.7983C47.114 12.7983 50.006 15.4573 50.006 19.1262ZM47.1863 19.1262C47.1863 16.8495 45.5102 15.2918 43.5648 15.2918C41.6195 15.2918 39.9433 16.8495 39.9433 19.1262C39.9433 21.38 41.6195 22.9606 43.5648 22.9606C45.5102 22.9606 47.1863 21.3771 47.1863 19.1262ZM63.3221 13.1806V24.541C63.3221 29.2142 60.5256 31.1228 57.2196 31.1228C54.1076 31.1228 52.2346 29.0715 51.5283 27.394L53.9832 26.387C54.4203 27.4168 55.4914 28.6322 57.2168 28.6322C59.3329 28.6322 60.6443 27.3456 60.6443 24.9233V24.0133H60.5459C59.9148 24.7807 58.699 25.4512 57.1647 25.4512C53.9542 25.4512 51.013 22.6952 51.013 19.149C51.013 15.5771 53.9542 12.7983 57.1647 12.7983C58.696 12.7983 59.9119 13.4688 60.5459 14.2134H60.6443V13.1835H63.3221V13.1806ZM60.8441 19.149C60.8441 16.9208 59.3358 15.2918 57.4165 15.2918C55.4712 15.2918 53.8413 16.9208 53.8413 19.149C53.8413 21.3543 55.4712 22.9606 57.4165 22.9606C59.3358 22.9606 60.8441 21.3543 60.8441 19.149ZM67.7358 6.52168V25.0659H64.9857V6.52168H67.7358ZM78.4531 21.2085L80.6417 22.6463C79.9353 23.6763 78.2331 25.4508 75.2919 25.4508C71.6442 25.4508 68.9202 22.672 68.9202 19.123C68.9202 15.3599 71.6675 12.7951 74.9763 12.7951C78.3084 12.7951 79.9382 15.4084 80.4708 16.8206L80.7632 17.5396L72.1798 21.043C72.837 22.3126 73.8588 22.9601 75.2919 22.9601C76.7277 22.9601 77.7236 22.2641 78.4531 21.2085ZM71.7167 18.9318L77.4544 16.5838C77.1388 15.7936 76.1893 15.243 75.0719 15.243C73.6389 15.243 71.6442 16.4897 71.7167 18.9318ZM12.815 17.4808V14.7961H21.9948C22.0845 15.2641 22.1308 15.8175 22.1308 16.4166C22.1308 18.4308 21.5721 20.9214 19.7715 22.6959C18.0201 24.4933 15.7822 25.4519 12.8179 25.4519C7.3234 25.4519 2.70312 21.0412 2.70312 15.6264C2.70312 10.2115 7.3234 5.80078 12.8179 5.80078C15.8575 5.80078 18.0229 6.9762 19.6499 8.50821L17.7277 10.4026C16.561 9.32417 14.9804 8.48541 12.815 8.48541C8.80269 8.48541 5.66462 11.6721 5.66462 15.6264C5.66462 19.5806 8.80269 22.7673 12.815 22.7673C15.4175 22.7673 16.8997 21.7374 17.8492 20.8016C18.6193 20.0427 19.1259 18.9586 19.3256 17.4779L12.815 17.4808Z" fill="#29233B"/>
</svg>
