<svg width="106" height="23" viewBox="0 0 106 23" fill="none" xmlns="http://www.w3.org/2000/svg">
<g clip-path="url(#clip0_2923_4989)">
<path d="M3.81909 14.8955C3.81909 16.1199 4.08754 17.06 4.43842 17.6286C4.89845 18.3736 5.5846 18.6891 6.28412 18.6891C7.18637 18.6891 8.01176 18.465 9.60238 16.2627C10.8767 14.4975 12.3782 12.0197 13.3885 10.4663L15.0994 7.83465C16.2879 6.00699 17.6635 3.97526 19.2408 2.5981C20.5285 1.47407 21.9175 0.849609 23.3154 0.849609C25.6623 0.849609 27.8979 2.21116 29.6088 4.76476C31.4813 7.56146 32.3902 11.0841 32.3902 14.7194C32.3902 16.8805 31.9647 18.4683 31.2406 19.7228C30.5411 20.9361 29.1778 22.1482 26.8843 22.1482V18.6891C28.8481 18.6891 29.3381 16.8826 29.3381 14.8152C29.3381 11.8691 28.6521 8.59962 27.1405 6.26347C26.0678 4.60641 24.6777 3.59389 23.1483 3.59389C21.4942 3.59389 20.1631 4.84282 18.6672 7.06969C17.8719 8.25282 17.0554 9.69466 16.1386 11.3216L15.1294 13.1114C13.1022 16.7098 12.5887 17.5295 11.5751 18.8821C9.79843 21.2505 8.28131 22.1482 6.28412 22.1482C3.91489 22.1482 2.41672 21.1212 1.48885 19.5735C0.731412 18.3122 0.359375 16.6574 0.359375 14.7717L3.81909 14.8955Z" fill="#29233B"/>
<path d="M3.08594 5.00897C4.67211 2.5613 6.96114 0.849609 9.58656 0.849609C11.107 0.849609 12.6185 1.30011 14.197 2.5903C15.9234 4.0009 17.7635 6.32368 20.0593 10.1518L20.8825 11.5257C22.8697 14.8398 24.0002 16.5447 24.6618 17.3488C25.5128 18.3814 26.1088 18.6891 26.8829 18.6891C28.8467 18.6891 29.3368 16.8826 29.3368 14.8152L32.3889 14.7194C32.3889 16.8805 31.9634 18.4683 31.2393 19.7228C30.5398 20.9361 29.1764 22.1482 26.8829 22.1482C25.4572 22.1482 24.1941 21.8382 22.7972 20.519C21.7234 19.5065 20.4681 17.7079 19.5023 16.091L16.6296 11.2871C15.1883 8.87617 13.8661 7.07861 13.1008 6.26458C12.2777 5.38922 11.2195 4.3321 9.53087 4.3321C8.16413 4.3321 7.00347 5.29221 6.03216 6.7608L3.08594 5.00897Z" fill="#29233B"/>
<path d="M9.5322 4.3321C8.16547 4.3321 7.0048 5.29221 6.03349 6.7608C4.66008 8.83602 3.81909 11.9271 3.81909 14.8955C3.81909 16.1199 4.08754 17.06 4.43842 17.6286L1.48885 19.5735C0.731412 18.3122 0.359375 16.6574 0.359375 14.7717C0.359375 11.3428 1.29949 7.76886 3.08727 5.00897C4.67344 2.5613 6.96247 0.849609 9.5879 0.849609L9.5322 4.3321ZM39.1157 1.52304H43.1179L49.9225 13.8472L56.7283 1.52304H60.6437V21.7735H57.3789V6.25334L51.4107 17.0008H48.3475L42.3805 6.25334V21.7735H39.1157V1.52304ZM70.8736 9.07345C68.5322 9.07345 67.122 10.8376 66.7845 13.022H74.7309C74.5672 10.7718 73.2706 9.07345 70.8736 9.07345ZM63.5476 14.2665C63.5476 9.67004 66.5149 6.32471 70.9304 6.32471C75.2734 6.32471 77.8665 9.62766 77.8665 14.5118V15.4095H66.7845C67.1777 17.7858 68.7528 19.3871 71.2924 19.3871C73.3186 19.3871 74.585 18.7682 75.7858 17.6363L77.5201 19.7628C75.886 21.2671 73.8076 22.1348 71.1765 22.1348C66.3969 22.1348 63.5476 18.6456 63.5476 14.2665ZM81.8253 9.36338H78.82V6.68712H81.8253V2.26125H84.9753V6.68712H89.5411V9.36338H84.9753V16.1466C84.9753 18.4627 85.715 19.2857 87.5328 19.2857C88.3627 19.2857 88.8383 19.2142 89.5411 19.0972V21.7444C88.6657 21.992 87.8303 22.1057 86.9258 22.1057C83.5251 22.1057 81.8253 20.2458 81.8253 16.5224V9.36338ZM102.805 11.966C102.173 10.367 100.762 9.18942 98.6872 9.18942C95.9917 9.18942 94.2662 11.1041 94.2662 14.223C94.2662 17.2639 95.8546 19.2711 98.558 19.2711C100.684 19.2711 102.201 18.0333 102.805 16.4934V11.966ZM105.956 21.7735H102.863V19.6614C101.999 20.9047 100.426 22.1348 97.8786 22.1348C93.7816 22.1348 91.0437 18.7013 91.0437 14.223C91.0437 9.70237 93.8474 6.32471 98.0524 6.32471C100.131 6.32471 101.761 7.15658 102.863 8.62518V6.68712H105.956V21.7735Z" fill="#29233B"/>
</g>
<defs>
<clipPath id="clip0_2923_4989">
<rect width="105.596" height="22.7232" fill="white" transform="translate(0.359375 0.136719)"/>
</clipPath>
</defs>
</svg>
