<svg width="109" height="27" viewBox="0 0 109 27" fill="none" xmlns="http://www.w3.org/2000/svg">
<g clip-path="url(#clip0_2923_4979)">
<path fill-rule="evenodd" clip-rule="evenodd" d="M9.85691 6.93555H17.2553C21.2276 6.93555 22.7229 8.93382 22.4918 11.8696C22.1099 16.7163 19.1612 19.3977 15.25 19.3977H13.2754C12.7387 19.3977 12.3778 19.7507 12.2326 20.7071L11.3943 26.2674C11.3389 26.628 11.1479 26.8367 10.8614 26.8652H6.2131C5.77577 26.8652 5.62108 26.5331 5.73566 25.8139L8.56973 7.98877C8.6805 7.27524 9.07391 6.93555 9.85691 6.93555Z" fill="#0F1011"/>
<path fill-rule="evenodd" clip-rule="evenodd" d="M41.9767 6.60742C44.4727 6.60742 46.7759 7.95289 46.4608 11.3061C46.0788 15.2913 43.9304 17.4964 40.5405 17.5059H37.5785C37.1526 17.5059 36.9464 17.8513 36.8356 18.5591L36.2627 22.178C36.1768 22.7246 35.8941 22.994 35.4778 22.994H32.722C32.2828 22.994 32.13 22.7151 32.2274 22.0907L34.5019 7.58663C34.6146 6.8731 34.8839 6.60742 35.3747 6.60742H41.9709H41.9767ZM37.4888 14.3728H39.7327C41.1364 14.3197 42.0683 13.3537 42.1619 11.6117C42.2192 10.5357 41.4878 9.76519 40.3247 9.77088L38.2126 9.78037L37.4888 14.3728ZM53.9527 21.8839C54.2048 21.6562 54.4607 21.5385 54.4244 21.8194L54.3347 22.4912C54.2888 22.8422 54.4283 23.0282 54.7567 23.0282H57.205C57.6175 23.0282 57.8181 22.8631 57.9193 22.2293L59.428 12.8205C59.5044 12.348 59.3879 12.1164 59.0269 12.1164H56.3342C56.0917 12.1164 55.9732 12.2512 55.9102 12.6193L55.8109 13.1981C55.7594 13.4999 55.6199 13.553 55.4901 13.2494C55.0336 12.1753 53.8687 11.6933 52.2435 11.7312C48.4679 11.809 45.9222 14.6575 45.6491 18.3086C45.4391 21.1324 47.4748 23.3508 50.16 23.3508C52.1079 23.3508 52.9788 22.7815 53.9604 21.8896L53.9527 21.8839ZM51.9017 20.436C50.2765 20.436 49.144 19.1474 49.3789 17.5685C49.6138 15.9896 51.1339 14.7011 52.7591 14.7011C54.3843 14.7011 55.5168 15.9896 55.2819 17.5685C55.047 19.1474 53.5288 20.436 51.9017 20.436ZM64.2196 12.0861H61.7369C61.2251 12.0861 61.0169 12.4656 61.1792 12.9324L64.2616 21.901L61.2384 26.1689C60.9844 26.5257 61.1811 26.8502 61.5383 26.8502H64.3284C64.491 26.8689 64.6556 26.8407 64.8026 26.769C64.9495 26.6973 65.0726 26.5852 65.1572 26.446L74.6372 12.9343C74.9294 12.5188 74.7919 12.0823 74.3126 12.0823H71.6714C71.2188 12.0823 71.0374 12.2607 70.7776 12.6345L66.8245 18.3276L65.0579 12.6212C64.9548 12.2758 64.697 12.0861 64.2215 12.0861H64.2196Z" fill="#1A1C1F"/>
<path fill-rule="evenodd" clip-rule="evenodd" d="M84.4982 6.60536C86.9942 6.60536 89.2974 7.95083 88.9823 11.3041C88.6004 15.2892 86.4519 17.4944 83.0621 17.5038H80.102C79.6761 17.5038 79.4698 17.8492 79.3591 18.5571L78.7861 22.176C78.7002 22.7225 78.4176 22.992 78.0012 22.992H75.2455C74.8062 22.992 74.6534 22.713 74.7508 22.0887L77.0292 7.58078C77.1418 6.86724 77.4111 6.60156 77.9019 6.60156H84.4982V6.60536ZM80.0103 14.3707H82.2542C83.6579 14.3176 84.5899 13.3517 84.6835 11.6096C84.7407 10.5336 84.0093 9.76313 82.8463 9.76882L80.7341 9.77831L80.0103 14.3707ZM96.4743 21.8818C96.7263 21.6541 96.9822 21.5365 96.946 21.8173L96.8562 22.4891C96.8104 22.8402 96.9498 23.0261 97.2783 23.0261H99.7266C100.139 23.0261 100.34 22.861 100.441 22.2272L101.95 12.8184C102.026 12.3459 101.909 12.1144 101.548 12.1144H98.8595C98.617 12.1144 98.4986 12.2491 98.4356 12.6173L98.3363 13.1961C98.2847 13.4978 98.1453 13.5509 98.0154 13.2473C97.559 12.1732 96.3941 11.6912 94.7689 11.7291C90.9933 11.807 88.4476 14.6554 88.1745 18.3066C87.9644 21.1303 90.0002 23.3488 92.6853 23.3488C94.6333 23.3488 95.5041 22.7794 96.4857 21.8875L96.4743 21.8818ZM94.4251 20.4339C92.7999 20.4339 91.6674 19.1454 91.9023 17.5665C92.1372 15.9876 93.6574 14.699 95.2826 14.699C96.9078 14.699 98.0403 15.9876 97.8054 17.5665C97.5705 19.1454 96.0503 20.4339 94.4251 20.4339ZM105.717 23.0413H102.891C102.842 23.0435 102.793 23.0349 102.747 23.0161C102.702 22.9972 102.661 22.9687 102.628 22.9324C102.595 22.8961 102.571 22.8531 102.556 22.8063C102.542 22.7595 102.538 22.7102 102.545 22.6618L105.028 7.03234C105.052 6.92568 105.111 6.83012 105.196 6.76121C105.282 6.6923 105.388 6.65409 105.498 6.6528H108.324C108.373 6.65062 108.422 6.65925 108.468 6.67808C108.513 6.69691 108.554 6.72547 108.587 6.76173C108.62 6.79798 108.645 6.84104 108.659 6.88782C108.673 6.9346 108.677 6.98395 108.67 7.03234L106.187 22.6618C106.164 22.7692 106.105 22.8656 106.02 22.9352C105.935 23.0049 105.828 23.0436 105.717 23.0451V23.0413Z" fill="#0F1011"/>
<path fill-rule="evenodd" clip-rule="evenodd" d="M5.23005 0.800781H12.6361C14.7215 0.800781 17.1966 0.867201 18.8504 2.31894C19.9561 3.28866 20.5367 4.83149 20.403 6.49388C19.9485 12.113 16.5663 15.2612 12.0288 15.2612H8.37732C7.75474 15.2612 7.34414 15.6711 7.16844 16.7794L6.14864 23.2316C6.0818 23.6491 5.90037 23.8958 5.57571 23.9261H1.00568C0.499594 23.9261 0.320075 23.5466 0.451848 22.7078L3.73662 2.02669C3.86839 1.1955 4.32865 0.800781 5.23005 0.800781Z" fill="#1A1C1F"/>
<path fill-rule="evenodd" clip-rule="evenodd" d="M7.27734 16.1261L8.57025 7.99067C8.68292 7.27714 9.07633 6.93555 9.85933 6.93555H17.2577C18.4819 6.93555 19.473 7.12532 20.2484 7.47639C19.5055 12.4787 16.2494 15.257 11.9868 15.257H8.34108C7.85218 15.2589 7.49315 15.5018 7.27734 16.1261Z" fill="#050505"/>
</g>
<defs>
<clipPath id="clip0_2923_4979">
<rect width="108.27" height="26.0649" fill="white" transform="translate(0.410156 0.800781)"/>
</clipPath>
</defs>
</svg>
