<svg width="66" height="37" viewBox="0 0 66 37" fill="none" xmlns="http://www.w3.org/2000/svg">
<g clip-path="url(#clip0_2923_4987)">
<path fill-rule="evenodd" clip-rule="evenodd" d="M65.1308 21.3183H56.3324C56.5398 23.4214 58.079 24.0969 59.8256 24.0969C61.6158 24.0969 63.0567 23.6938 64.2466 23.0618V26.6795C62.7367 27.5467 61.0089 27.9628 59.2688 27.8781C54.8915 27.8781 51.8132 25.1539 51.8132 19.7274C51.8132 15.1617 54.4221 11.5331 58.6903 11.5331C62.9694 11.5331 65.1963 15.1072 65.1963 19.7056C65.1963 20.1414 65.1526 21.0786 65.1308 21.3183ZM58.6685 15.1944C57.5441 15.1944 56.2997 15.9898 56.2997 18.0057H60.939C60.939 15.9898 59.771 15.1944 58.6685 15.1944ZM44.7286 27.8781C43.1567 27.8781 42.1961 27.2243 41.563 26.7448L41.5411 31.79L37.0437 32.738V11.8273H41.1482L41.2355 12.9387C42.1875 12.0374 43.4493 11.5343 44.7614 11.5331C47.927 11.5331 50.8962 14.3662 50.8962 19.5966C50.8962 25.2956 47.9489 27.8781 44.7286 27.8781ZM43.6916 15.5104C42.6546 15.5104 42.0105 15.8808 41.5411 16.393L41.563 23.0618C41.9996 23.5412 42.6328 23.9117 43.6916 23.9117C45.3508 23.9117 46.4643 22.1138 46.4643 19.6947C46.4643 17.3519 45.329 15.5104 43.6916 15.5104ZM30.8543 11.8273H35.3626V27.5621H30.8543V11.8273ZM30.8543 6.70582L35.3626 5.75781V9.4191L30.8543 10.378V6.70582ZM26.1386 16.8942V27.5621H21.6412V11.8273H25.6801L25.8111 13.1567C26.9027 11.228 29.1623 11.6202 29.7627 11.8273V15.9571C29.1951 15.7719 27.2629 15.4886 26.1386 16.8942ZM16.8053 22.0375C16.8053 24.6854 19.6435 23.8681 20.2111 23.6284V27.2897C19.6108 27.6166 18.5301 27.8781 17.0564 27.8781C16.4422 27.896 15.8308 27.789 15.2593 27.5635C14.6878 27.3381 14.1683 26.999 13.7324 26.5668C13.2963 26.1346 12.9529 25.6183 12.7231 25.0495C12.4932 24.4807 12.3817 23.8712 12.3952 23.2579L12.4062 8.90696L16.7944 7.96984V11.8273H20.2221V15.6738H16.8053V22.0484V22.0375ZM11.4455 22.8002C11.4455 26.0366 8.92394 27.8781 5.19064 27.8781C3.51538 27.8768 1.85824 27.5319 0.322078 26.8647V22.5823C1.82849 23.3996 3.70606 24.0098 5.19064 24.0098C6.19492 24.0098 6.8608 23.7483 6.8608 22.9201C6.8608 20.7626 0.0273438 21.5689 0.0273438 16.6C0.0273438 13.4291 2.51621 11.5331 6.16217 11.5331C7.64676 11.5331 9.13134 11.751 10.6268 12.3503V16.5782C9.24483 15.8522 7.71264 15.4567 6.15126 15.4232C5.21248 15.4232 4.57934 15.6956 4.57934 16.4039C4.57934 18.4198 11.4455 17.4609 11.4455 22.8111V22.8002Z" fill="#29233B"/>
</g>
<defs>
<clipPath id="clip0_2923_4987">
<rect width="65.4964" height="50.1248" fill="white" transform="translate(0.0273438 -6.22852)"/>
</clipPath>
</defs>
</svg>
